<svg xmlns="http://www.w3.org/2000/svg" width="512" height="512" viewBox="0 0 512 512">
  <defs>
    <linearGradient id="bg" x1="64" y1="32" x2="448" y2="480" gradientUnits="userSpaceOnUse">
      <stop stop-color="#172554"/>
      <stop offset="0.5" stop-color="#0F172A"/>
      <stop offset="1" stop-color="#020617"/>
    </linearGradient>
    <linearGradient id="blue" x1="128" y1="112" x2="248" y2="232"><stop stop-color="#38BDF8"/><stop offset="1" stop-color="#2563EB"/></linearGradient>
    <linearGradient id="violet" x1="264" y1="112" x2="384" y2="232"><stop stop-color="#A78BFA"/><stop offset="1" stop-color="#7C3AED"/></linearGradient>
    <linearGradient id="green" x1="128" y1="248" x2="384" y2="384"><stop stop-color="#34D399"/><stop offset="1" stop-color="#0D9488"/></linearGradient>
  </defs>
  <rect width="512" height="512" rx="112" fill="url(#bg)"/>
  <rect x="112" y="96" width="128" height="128" rx="36" fill="url(#blue)"/>
  <rect x="272" y="96" width="128" height="128" rx="36" fill="url(#violet)"/>
  <rect x="112" y="256" width="288" height="144" rx="40" fill="url(#green)"/>
  <path d="M186 336L222 278H290L326 336" fill="none" stroke="#FFFFFF" stroke-width="24" stroke-linecap="round" stroke-linejoin="round"/>
  <path d="M208 316H304" stroke="#FFFFFF" stroke-width="22" stroke-linecap="round"/>
  <circle cx="176" cy="160" r="17" fill="#FFFFFF"/>
  <path d="M336 132L345 151L364 160L345 169L336 188L327 169L308 160L327 151L336 132Z" fill="#FFFFFF"/>
</svg>
