<svg xmlns="http://www.w3.org/2000/svg" width="512" height="512" viewBox="0 0 512 512">
  <defs>
    <linearGradient id="tile1" x1="136" y1="120" x2="256" y2="256" gradientUnits="userSpaceOnUse">
      <stop stop-color="#38BDF8"/>
      <stop offset="1" stop-color="#2563EB"/>
    </linearGradient>
    <linearGradient id="tile2" x1="264" y1="120" x2="392" y2="256" gradientUnits="userSpaceOnUse">
      <stop stop-color="#A78BFA"/>
      <stop offset="1" stop-color="#7C3AED"/>
    </linearGradient>
    <linearGradient id="tile3" x1="136" y1="264" x2="392" y2="392" gradientUnits="userSpaceOnUse">
      <stop stop-color="#34D399"/>
      <stop offset="1" stop-color="#0D9488"/>
    </linearGradient>
    <filter id="shadow" x="80" y="72" width="352" height="368" filterUnits="userSpaceOnUse">
      <feDropShadow dx="0" dy="18" stdDeviation="16" flood-color="#000000" flood-opacity="0.34"/>
    </filter>
  </defs>
  <g filter="url(#shadow)">
    <rect x="128" y="112" width="120" height="120" rx="34" fill="url(#tile1)"/>
    <rect x="264" y="112" width="120" height="120" rx="34" fill="url(#tile2)"/>
    <rect x="128" y="248" width="256" height="136" rx="38" fill="url(#tile3)"/>
  </g>
  <path d="M192 324L226 268H286L320 324" fill="none" stroke="#FFFFFF" stroke-width="22" stroke-linecap="round" stroke-linejoin="round"/>
  <path d="M213 306H299" stroke="#FFFFFF" stroke-width="20" stroke-linecap="round"/>
  <circle cx="188" cy="172" r="16" fill="#FFFFFF" fill-opacity="0.95"/>
  <path d="M314 151L322 168L340 176L322 184L314 202L306 184L288 176L306 168L314 151Z" fill="#FFFFFF"/>
</svg>
